<svg width="16" height="16" viewBox="0 0 16 16" fill="none" xmlns="http://www.w3.org/2000/svg">
<rect width="16" height="16" fill="#FF6A1D"/>
<path d="M8.66828 5.1472V11H6.84134V8.08187L5.94028 11H4.36961L3.46855 8.08187V11H1.63335V5.1472H3.88188L5.17148 8.66053L6.42801 5.1472H8.66828ZM11.935 5.1472C12.5468 5.1472 13.0813 5.2712 13.5388 5.5192C14.0017 5.7672 14.3572 6.11164 14.6052 6.55253C14.8532 6.99342 14.9772 7.49493 14.9772 8.05707C14.9772 8.61369 14.8532 9.1152 14.6052 9.5616C14.3572 10.008 14.0017 10.3607 13.5388 10.6197C13.0813 10.8732 12.5468 11 11.935 11H9.49637V5.1472H11.935ZM11.7697 9.3632C12.183 9.3632 12.5109 9.25022 12.7534 9.02427C12.9959 8.79831 13.1172 8.47591 13.1172 8.05707C13.1172 7.63822 12.9959 7.31582 12.7534 7.08987C12.5109 6.86391 12.183 6.75093 11.7697 6.75093H11.3316V9.3632H11.7697Z" fill="white"/>
</svg>
