<svg width="1200" height="630" viewBox="0 0 1200 630" fill="none" xmlns="http://www.w3.org/2000/svg">
<rect x="285" width="630" height="630" fill="#EBFFFB"/>
<path d="M492.9 136.5L354.3 231.156L444.6 219.195L478.2 492.45H492.9V136.5Z" fill="url(#paint0_linear)"/>
<path d="M600 136.5L461.4 231.156L551.7 219.195L585.3 492.45H600V136.5Z" fill="url(#paint1_linear)"/>
<path d="M707.1 136.5L568.5 231.156L658.8 219.195L692.4 492.45H707.1V136.5Z" fill="url(#paint2_linear)"/>
<path d="M845.7 310.8L707.1 136.5V180.6L784.275 310.8L707.1 448.875V483L845.7 310.8Z" fill="url(#paint3_linear)"/>
<defs>
<linearGradient id="paint0_linear" x1="423.6" y1="136.5" x2="423.6" y2="492.45" gradientUnits="userSpaceOnUse">
<stop stop-color="#8A3FFC"/>
<stop offset="1" stop-color="#256DF4"/>
</linearGradient>
<linearGradient id="paint1_linear" x1="530.7" y1="136.5" x2="530.7" y2="492.45" gradientUnits="userSpaceOnUse">
<stop stop-color="#8A3FFC"/>
<stop offset="1" stop-color="#256DF4"/>
</linearGradient>
<linearGradient id="paint2_linear" x1="637.8" y1="136.5" x2="637.8" y2="492.45" gradientUnits="userSpaceOnUse">
<stop stop-color="#8A3FFC"/>
<stop offset="1" stop-color="#256DF4"/>
</linearGradient>
<linearGradient id="paint3_linear" x1="776.4" y1="136.5" x2="776.4" y2="483" gradientUnits="userSpaceOnUse">
<stop stop-color="#8A3FFC"/>
<stop offset="1" stop-color="#256DF4"/>
</linearGradient>
</defs>
</svg>
