<svg width="16" height="16" viewBox="0 0 16 16" fill="none" xmlns="http://www.w3.org/2000/svg">
<g clip-path="url(#clip0_576_20)">
<path d="M13.3333 0H2.66667C1.19391 0 0 1.19391 0 2.66667V13.3333C0 14.8061 1.19391 16 2.66667 16H13.3333C14.8061 16 16 14.8061 16 13.3333V2.66667C16 1.19391 14.8061 0 13.3333 0Z" fill="#FF6A1D"/>
<path d="M8.66823 5.14697V10.9998H6.84129V8.08164L5.94023 10.9998H4.36956L3.4685 8.08164V10.9998H1.6333V5.14697H3.88183L5.17143 8.6603L6.42796 5.14697H8.66823ZM11.935 5.14697C12.5468 5.14697 13.0813 5.27097 13.5388 5.51897C14.0017 5.76697 14.3572 6.11141 14.6052 6.5523C14.8532 6.99319 14.9771 7.4947 14.9771 8.05684C14.9771 8.61346 14.8532 9.11497 14.6052 9.56137C14.3572 10.0078 14.0017 10.3605 13.5388 10.6195C13.0813 10.873 12.5468 10.9998 11.935 10.9998H9.49632V5.14697H11.935ZM11.7697 9.36297C12.183 9.36297 12.5108 9.24999 12.7534 9.02404C12.9959 8.79808 13.1172 8.47568 13.1172 8.05684C13.1172 7.63799 12.9959 7.31559 12.7534 7.08964C12.5108 6.86368 12.183 6.7507 11.7697 6.7507H11.3316V9.36297H11.7697Z" fill="white"/>
</g>
<defs>
<clipPath id="clip0_576_20">
<rect width="16" height="16" fill="white"/>
</clipPath>
</defs>
</svg>
